<?xml version="1.0" standalone="no"?>
<!DOCTYPE svg PUBLIC "-//W3C//DTD SVG 20010904//EN"
 "http://www.w3.org/TR/2001/REC-SVG-20010904/DTD/svg10.dtd">
<svg version="1.0" xmlns="http://www.w3.org/2000/svg"
 width="286.000000pt" height="286.000000pt" viewBox="0 0 286.000000 286.000000"
 preserveAspectRatio="xMidYMid meet">
<metadata>
Created by potrace 1.11, written by Peter Selinger 2001-2013
</metadata>
<g transform="translate(0.000000,286.000000) scale(0.100000,-0.100000)"
fill="#000000" stroke="none">
<path d="M1397 2737 c-15 -28 -46 -72 -68 -97 -22 -25 -60 -71 -85 -103 l-44
-59 8 44 c4 23 7 67 7 96 0 44 -4 57 -23 72 -28 23 -57 15 -85 -22 -14 -18
-21 -51 -25 -117 l-7 -92 -29 87 c-30 88 -78 155 -107 150 -41 -7 -58 -19 -64
-46 -9 -43 2 -84 48 -175 l40 -80 -65 61 c-72 67 -115 89 -153 80 -33 -8 -49
-47 -33 -81 6 -14 39 -46 72 -71 l61 -46 -40 6 c-22 3 -60 8 -85 11 -25 2 -71
7 -104 10 -32 3 -77 12 -99 20 -23 8 -43 12 -45 10 -2 -2 1 -19 7 -37 15 -48
20 -82 27 -183 3 -49 9 -110 14 -135 7 -39 7 -42 -5 -25 -81 120 -121 154
-164 140 -18 -5 -33 -30 -36 -60 -3 -22 30 -72 83 -128 l56 -58 -47 20 c-26
12 -68 30 -93 41 -66 29 -119 27 -140 -6 -13 -19 -15 -32 -8 -51 13 -38 51
-62 156 -98 l93 -33 -83 -1 c-81 -1 -171 -26 -173 -48 0 -4 -2 -16 -4 -25 -2
-10 5 -28 15 -40 19 -24 66 -29 150 -16 l45 8 -34 -28 c-19 -15 -60 -49 -90
-75 -31 -27 -84 -66 -119 -87 l-63 -37 53 -31 c29 -16 73 -47 98 -69 25 -22
71 -61 104 -87 l58 -47 -43 6 c-88 14 -112 14 -146 0 -30 -13 -34 -18 -31 -46
5 -54 42 -72 154 -77 l96 -4 -93 -35 c-131 -48 -183 -110 -131 -156 31 -29 90
-21 181 23 45 22 85 40 88 40 2 0 -11 -15 -30 -34 -91 -88 -120 -162 -77 -201
33 -30 80 -6 133 66 9 13 23 33 31 44 13 18 13 15 6 -25 -4 -25 -11 -77 -14
-116 -7 -87 -22 -168 -35 -193 -15 -27 -4 -31 39 -16 21 7 66 16 99 19 34 3
89 8 124 11 34 4 74 8 90 11 15 2 27 3 27 1 0 -2 -24 -21 -54 -41 -61 -42 -86
-74 -86 -109 0 -45 50 -65 102 -40 15 7 55 39 89 70 l62 58 -20 -40 c-65 -128
-80 -182 -62 -217 15 -29 28 -38 56 -38 41 0 73 41 108 140 19 52 34 88 35 80
1 -8 3 -46 5 -83 6 -92 36 -147 80 -147 51 0 70 77 46 185 -9 39 -9 40 7 16 9
-14 45 -58 79 -98 69 -82 123 -156 123 -172 0 -27 21 -18 39 16 25 50 216 285
206 254 -12 -38 -23 -133 -17 -155 13 -56 69 -69 103 -25 24 31 33 77 33 163
0 41 3 62 7 50 4 -10 20 -54 35 -97 42 -121 92 -161 145 -118 35 29 29 84 -21
189 l-41 87 48 -46 c91 -87 139 -109 181 -81 47 31 22 86 -73 158 l-50 37 35
-6 c19 -4 73 -10 120 -13 47 -4 117 -15 155 -24 39 -10 71 -17 72 -16 1 1 -4
24 -12 51 -9 27 -18 78 -21 114 -7 98 -13 162 -18 196 -3 26 -2 27 8 11 58
-97 125 -148 165 -127 50 27 33 94 -47 181 -27 30 -49 56 -48 57 1 1 35 -14
76 -34 125 -60 200 -54 200 17 0 51 -54 86 -210 136 -18 6 0 10 68 15 112 7
147 26 147 80 0 55 -56 69 -177 44 -37 -7 -35 -2 10 27 20 14 57 43 81 64 58
52 150 114 168 114 25 0 9 23 -32 46 -36 20 -256 196 -251 201 1 2 18 -2 37
-7 59 -17 136 -13 159 10 36 36 4 94 -59 107 -20 4 -39 8 -43 9 -5 1 -36 2
-70 3 l-63 2 80 28 c143 50 176 77 161 136 -15 58 -82 55 -218 -8 l-76 -36 64
65 c45 46 67 77 75 107 10 39 9 43 -15 64 -42 36 -89 11 -153 -82 -31 -45 -34
-47 -29 -20 7 33 12 86 21 186 3 37 12 89 20 115 8 27 15 52 15 56 0 3 -21 0
-46 -8 -46 -14 -73 -17 -209 -29 -38 -3 -83 -8 -100 -11 -28 -5 -27 -4 15 25
62 42 75 53 88 78 17 32 15 57 -8 78 -36 33 -98 6 -193 -84 l-38 -36 45 94
c51 104 57 150 26 181 -55 55 -121 -9 -170 -162 -6 -21 -15 -38 -18 -38 -4 0
-7 38 -7 85 -1 70 -5 90 -22 112 -28 38 -81 39 -101 3 -13 -25 -11 -98 4 -170
l7 -35 -39 50 c-21 28 -64 80 -95 117 -31 37 -67 88 -80 113 -13 25 -26 45
-29 45 -3 0 -17 -24 -33 -53z m-212 -64 c25 -24 16 -115 -25 -250 -41 -134
-49 -130 -57 26 -7 130 1 191 28 220 24 25 32 26 54 4z m569 -28 c13 -26 15
-57 12 -147 -3 -62 -7 -122 -10 -133 -2 -11 -5 -29 -5 -40 -3 -70 -71 157 -78
261 -4 56 -2 74 11 86 22 23 52 11 70 -27z m-780 8 c42 -46 168 -453 140 -453
-33 0 -224 353 -224 414 0 36 21 66 45 66 8 0 26 -12 39 -27z m994 5 c23 -23
12 -77 -29 -161 -65 -128 -138 -255 -164 -283 l-24 -25 -3 33 c-3 32 66 255
111 360 33 77 77 108 109 76z m-477 -106 c128 -149 150 -179 168 -227 18 -47
33 -125 25 -125 -2 0 -28 11 -58 25 -45 21 -57 31 -64 58 -10 37 -9 42 14 33
12 -4 15 -15 12 -36 -5 -36 8 -41 14 -6 6 29 -8 56 -27 56 -10 0 -15 10 -15
29 0 35 -22 55 -55 49 -16 -3 -30 1 -41 13 -10 11 -25 19 -34 19 -9 0 -24 -8
-34 -19 -11 -12 -25 -16 -43 -13 -30 6 -53 -18 -53 -55 0 -13 -6 -23 -15 -23
-22 0 -34 -30 -24 -59 6 -13 6 -28 2 -32 -12 -11 -81 -38 -86 -33 -9 10 15
102 40 151 14 29 60 90 101 135 41 46 81 93 90 106 8 12 18 21 22 20 4 -2 31
-31 61 -66z m-676 -51 c17 -11 46 -34 66 -53 37 -35 149 -165 149 -173 0 -5
-62 24 -145 67 -67 35 -145 98 -156 125 -19 50 30 70 86 34z m1326 -19 c13
-35 -53 -91 -193 -163 -121 -61 -121 -61 -98 -29 13 18 51 62 84 98 104 111
187 149 207 94z m-687 -68 c22 -21 21 -21 -24 -20 -22 0 -40 2 -40 3 0 6 33
33 40 33 5 0 16 -7 24 -16z m-90 -22 c2 -4 -7 -17 -20 -29 -21 -18 -26 -20
-31 -8 -10 27 36 61 51 37z m174 -4 c7 -7 12 -20 12 -30 0 -17 -2 -17 -30 3
-28 22 -31 39 -6 39 6 0 17 -5 24 -12z m-63 -83 c14 -13 25 -28 25 -33 0 -5
-31 -9 -70 -9 -38 0 -70 4 -70 9 0 17 49 58 70 58 12 0 32 -11 45 -25z m-175
-14 c-4 -16 -5 -32 -2 -36 4 -3 -1 -3 -11 1 -17 6 -24 44 -10 57 18 19 31 6
23 -22z m-560 -26 c164 -11 229 -30 289 -81 l36 -32 -28 -11 c-16 -6 -34 -11
-41 -11 -6 0 -17 -5 -24 -12 -9 -9 -12 -7 -12 9 0 27 -35 53 -61 46 -11 -3
-28 2 -39 12 -17 15 -24 16 -45 7 -14 -7 -28 -18 -31 -26 -3 -8 -13 -12 -25
-9 -11 3 -28 -2 -39 -12 -22 -20 -26 -35 -10 -35 6 0 10 6 10 14 0 16 27 29
42 20 15 -10 -32 -54 -50 -47 -9 4 -13 2 -8 -5 3 -6 -2 -13 -13 -17 -29 -9
-36 -41 -16 -72 9 -14 14 -34 12 -45 -5 -19 18 -51 42 -59 8 -3 7 -18 -5 -52
l-16 -48 -23 21 c-13 12 -34 47 -48 78 -26 57 -31 89 -43 272 -3 52 -8 98 -10
102 -3 4 12 5 33 3 21 -2 76 -7 123 -10z m1536 -69 c-4 -39 -8 -98 -11 -132
-9 -119 -30 -182 -81 -244 l-27 -32 -19 49 c-22 57 -21 53 -5 53 25 0 50 37
43 63 -4 16 0 29 9 37 21 17 19 46 -5 70 -11 11 -20 31 -20 44 0 34 -21 47
-71 45 -80 -4 -93 -1 -79 16 16 19 29 19 52 -2 20 -18 25 -4 6 15 -16 16 -53
15 -67 -2 -6 -7 -22 -11 -36 -8 -30 5 -55 -13 -55 -39 0 -11 -1 -19 -2 -19 -2
1 -27 9 -56 19 l-53 18 32 27 c68 58 122 73 279 82 63 3 116 7 118 9 2 1 14 3
28 3 25 0 25 -1 20 -72z m-829 -26 c2 -14 -3 -20 -15 -20 -20 0 -26 30 -8 42
13 9 19 3 23 -22z m-587 -11 c0 -5 -17 -9 -37 -9 l-38 1 24 19 c18 16 27 18
37 9 8 -6 14 -15 14 -20z m543 17 c7 -18 -1 -26 -25 -26 -11 0 -18 7 -18 20 0
23 35 28 43 6z m97 5 c0 -22 -13 -39 -26 -34 -22 8 -17 43 6 43 11 0 20 -4 20
-9z m-150 -20 c0 -26 -27 -34 -39 -12 -12 21 -5 31 21 31 11 0 18 -7 18 -19z
m199 10 c18 -11 5 -31 -20 -31 -12 0 -19 7 -19 20 0 21 16 26 39 11z m-605
-27 c11 -29 6 -33 -24 -16 -16 9 -30 20 -30 25 0 14 48 7 54 -9z m353 -1 c2
-6 -12 -19 -32 -29 -31 -14 -38 -15 -45 -3 -12 19 10 31 29 16 12 -10 14 -9 8
5 -3 9 -1 19 6 22 17 6 30 2 34 -11z m297 11 c17 -7 10 -34 -9 -34 -17 0 -28
17 -20 30 7 12 8 12 29 4z m381 -4 c3 -5 1 -10 -4 -10 -6 0 -20 -9 -31 -20
-19 -19 -20 -19 -20 -2 0 33 40 56 55 32z m-1557 -37 c16 -16 38 -42 49 -58
36 -51 122 -215 113 -215 -13 0 -121 90 -173 145 -65 67 -82 101 -68 131 14
32 45 30 79 -3z m1225 1 c-7 -18 -33 -18 -33 -1 0 19 10 27 25 20 8 -2 11 -11
8 -19z m495 14 c7 -7 12 -21 12 -32 0 -18 -1 -18 -25 4 -14 13 -25 27 -25 32
0 12 24 10 38 -4z m387 -28 c8 -25 -8 -59 -50 -107 -42 -50 -184 -168 -191
-160 -8 7 41 101 99 189 64 98 125 132 142 78z m-1307 -8 c3 -9 -2 -13 -14
-10 -9 1 -19 9 -22 16 -3 9 2 13 14 10 9 -1 19 -9 22 -16z m462 8 c0 -12 -28
-25 -36 -17 -9 9 6 27 22 27 8 0 14 -5 14 -10z m-172 -16 c28 -8 52 -18 52
-23 0 -5 -15 -15 -32 -22 -18 -7 -52 -31 -76 -53 l-43 -40 -24 30 c-13 16 -21
32 -19 36 3 4 -12 16 -31 26 -42 21 -35 33 25 50 50 13 87 12 148 -4z m-636
-6 c13 -11 9 -19 -34 -59 -48 -45 -50 -46 -59 -25 -25 55 47 120 93 84z m217
-39 c-9 -5 -17 -2 -23 8 -5 10 -4 18 5 24 9 5 17 2 23 -8 5 -10 4 -18 -5 -24z
m669 24 c-4 -22 -22 -20 -26 1 -2 10 3 16 13 16 10 0 15 -7 13 -17z m312 -3
c21 -21 27 -74 10 -85 -12 -7 -102 83 -95 96 11 16 64 10 85 -11z m-1360 -25
c0 -39 -14 -46 -30 -16 -7 15 -6 23 6 35 22 22 24 21 24 -19z m1090 15 c0 -11
-7 -20 -15 -20 -8 0 -15 9 -15 20 0 11 7 20 15 20 8 0 15 -9 15 -20z m-746 -5
c7 -20 -23 -32 -35 -14 -8 12 -13 6 -11 -13 1 -3 -6 -12 -14 -19 -13 -10 -17
-10 -25 2 -13 21 -12 24 24 41 43 20 54 21 61 3z m171 5 c3 -5 1 -10 -4 -10
-6 0 -11 -8 -11 -17 -1 -16 -2 -16 -15 1 -8 11 -15 23 -15 28 0 12 38 10 45
-2z m455 0 c0 -5 -5 -21 -12 -35 l-12 -26 -11 28 c-9 20 -9 30 -1 35 16 11 36
10 36 -2z m156 2 c17 -11 13 -44 -3 -37 -8 3 -17 5 -19 5 -2 0 -4 9 -4 20 0
21 8 25 26 12z m348 -15 c8 -13 6 -21 -7 -34 -16 -16 -17 -16 -17 4 0 12 -3
29 -7 39 -8 22 16 15 31 -9z m-1005 -13 c15 -33 10 -38 -22 -23 -21 10 -24 15
-16 30 13 26 24 24 38 -7z m110 10 c2 -1 -12 -21 -30 -43 -28 -33 -35 -37 -43
-24 -5 10 -3 28 8 50 14 28 20 33 39 27 12 -3 24 -8 26 -10z m349 -34 c5 -19
6 -43 3 -52 -5 -12 -14 -5 -38 33 l-32 50 22 8 c27 11 33 6 45 -39z m81 31
c12 -21 5 -31 -19 -31 -13 0 -16 6 -12 25 5 30 17 32 31 6z m165 3 c9 -3 16
-15 16 -26 0 -28 -34 -19 -38 10 -4 24 -2 25 22 16z m-935 -64 c-9 -6 -19 -4
-29 5 -12 13 -12 17 5 29 18 13 21 13 29 -5 7 -15 6 -23 -5 -29z m377 39 c3
-6 -5 -22 -20 -36 -14 -13 -34 -35 -43 -49 -12 -18 -18 -22 -24 -13 -9 16 5
45 39 82 28 30 37 33 48 16z m252 -14 c28 -36 45 -82 37 -102 -5 -15 -10 -12
-25 17 -10 19 -28 45 -40 58 -21 22 -21 52 -1 52 5 0 18 -11 29 -25z m-84 3
c-13 -24 -37 -48 -47 -48 -6 0 2 14 18 30 31 32 41 38 29 18z m443 1 c14 -14
6 -39 -12 -39 -18 0 -26 15 -19 34 7 19 16 20 31 5z m-767 -19 c38 -20 59 -59
24 -46 -9 3 -33 9 -54 12 -36 6 -38 8 -28 30 13 29 10 29 58 4z m590 -22 c0
-4 -11 -8 -24 -8 -13 0 -38 -3 -56 -6 -31 -7 -32 -6 -21 14 16 30 72 45 89 24
6 -9 12 -19 12 -24z m-390 17 c9 -11 5 -20 -22 -44 -19 -17 -43 -48 -53 -71
l-19 -41 -11 28 c-15 35 -9 51 37 102 40 45 49 48 68 26z m173 -17 c35 -47 55
-90 51 -111 -5 -32 -12 -30 -23 6 -11 34 -65 97 -83 97 -5 0 -4 9 2 20 15 28
25 25 53 -12z m-1228 -8 c73 -28 277 -135 311 -164 l38 -31 -29 -5 c-17 -3
-46 0 -65 6 -19 7 -96 31 -170 54 -154 48 -208 75 -216 106 -15 59 35 72 131
34z m590 -24 c-18 -27 -31 -31 -53 -18 -9 7 -8 13 8 27 11 10 20 13 20 7 0 -7
5 -12 10 -12 7 0 7 6 1 19 -13 24 -1 36 17 17 12 -12 12 -17 -3 -40z m-180 24
c3 -11 11 -20 16 -20 5 0 9 -4 9 -9 0 -10 -19 -9 -37 2 -15 9 -18 47 -4 47 5
0 13 -9 16 -20z m355 18 c0 -2 -7 -21 -15 -43 -8 -22 -14 -57 -15 -77 0 -36
-2 -38 -33 -38 -19 0 -55 -6 -80 -14 -26 -8 -47 -10 -47 -5 0 23 42 89 76 119
40 35 115 73 114 58z m835 -80 c32 -38 61 -95 53 -104 -3 -3 -28 1 -55 9 -26
8 -60 13 -74 11 -26 -2 -27 0 -32 54 -3 31 -9 70 -13 85 l-7 29 50 -26 c28
-14 63 -40 78 -58z m65 73 c0 -12 -29 -35 -36 -28 -11 10 5 37 21 37 8 0 15
-4 15 -9z m184 -34 c-3 -8 -14 -17 -25 -20 -11 -3 -19 -2 -17 1 2 4 10 20 18
35 11 22 15 25 22 13 4 -8 5 -21 2 -29z m497 23 c11 -6 19 -21 19 -35 0 -46
-61 -76 -278 -139 -157 -45 -165 -46 -181 -37 -11 7 -10 12 5 28 41 42 347
193 392 193 13 0 32 -5 43 -10z m-1468 -29 c14 -6 31 -20 38 -32 10 -20 9 -21
-7 -15 -11 4 -45 12 -76 18 -53 9 -70 23 -51 42 8 8 59 1 96 -13z m308 -8 c16
-16 17 -77 1 -118 -16 -43 -38 -74 -28 -40 18 64 15 95 -15 128 l-30 32 -28
-33 c-29 -33 -31 -51 -17 -117 7 -29 6 -29 -13 6 -41 74 -33 138 21 158 24 9
95 -2 109 -16z m265 10 c17 -17 14 -18 -57 -25 -41 -3 -75 -5 -76 -4 -8 8 21
29 48 36 53 12 66 11 85 -7z m259 -23 c29 -46 30 -50 9 -50 -8 0 -12 -5 -9
-10 4 -6 11 -7 17 -4 6 4 14 0 19 -7 13 -21 11 -29 -8 -29 -10 0 -27 17 -39
39 -19 34 -19 39 -5 50 14 10 13 11 -6 7 -26 -5 -38 8 -29 29 9 25 24 17 51
-25z m-1168 -8 c20 -12 -7 -45 -30 -37 -13 6 -14 11 -6 26 11 21 18 23 36 11z
m475 -29 c-6 -45 -31 -88 -44 -75 -6 6 0 29 16 61 15 28 28 51 29 51 2 0 1
-17 -1 -37z m228 -19 c24 -51 18 -76 -9 -42 -18 23 -34 101 -19 92 4 -3 17
-25 28 -50z m-479 6 c6 0 7 9 4 20 -6 18 -3 20 29 16 59 -8 114 -26 131 -42
23 -23 15 -25 -35 -10 -25 7 -56 12 -70 10 -14 -1 -35 -3 -47 -3 -15 -1 -21
-6 -17 -15 3 -8 1 -17 -5 -21 -7 -4 -11 10 -10 42 1 26 4 38 6 26 2 -13 9 -23
14 -23z m373 21 c20 -22 22 -41 12 -93 -6 -32 -11 -38 -32 -38 -43 0 -63 92
-29 130 22 25 28 25 49 1z m324 -11 c3 -24 1 -25 -42 -22 -25 2 -66 -3 -90
-11 l-44 -15 10 29 c12 34 50 49 118 46 40 -2 45 -5 48 -27z m22 -16 c0 -25
-4 -43 -8 -40 -7 4 -4 86 4 86 2 0 4 -21 4 -46z m-960 -9 c0 -2 -3 -10 -6 -18
-8 -22 -43 -10 -37 13 3 12 11 16 24 13 10 -3 19 -7 19 -8z m394 -22 c19 -9
37 -22 40 -29 8 -21 -54 -5 -87 23 -26 21 -26 23 -8 23 11 0 36 -7 55 -17z
m-59 -15 c28 -21 65 -90 64 -118 0 -8 -8 1 -18 20 -27 50 -50 67 -98 72 l-42
3 5 -44 c5 -50 15 -66 57 -87 43 -23 43 -11 -1 17 -30 20 -38 31 -40 62 -3 35
-2 37 26 37 29 0 59 -25 81 -67 14 -27 7 -47 -23 -62 -19 -10 -30 -10 -62 4
-21 9 -49 26 -61 37 -13 12 -23 16 -23 10 0 -7 9 -17 20 -24 21 -14 29 -78 9
-78 -5 0 -8 -4 -5 -9 10 -16 -34 -44 -74 -47 -22 -1 -40 -1 -40 2 0 2 25 15
55 29 30 13 55 26 55 29 0 2 -6 21 -14 44 -25 69 -10 132 40 171 34 27 54 26
89 -1z m490 2 c-26 -26 -88 -39 -80 -18 6 15 52 35 85 37 11 1 9 -4 -5 -19z
m105 -2 c19 -13 40 -38 47 -57 14 -33 13 -34 -25 -70 -21 -20 -56 -42 -78 -48
-30 -9 -35 -9 -20 0 49 30 75 63 81 105 l7 42 -35 0 c-52 0 -66 -8 -98 -58
-30 -47 -38 -44 -17 5 26 61 63 99 99 102 3 1 21 -9 39 -21z m-420 -11 c-1
-15 -50 -52 -50 -37 0 6 8 22 18 35 17 23 32 24 32 2z m210 -33 c0 -18 -3 -18
-29 5 -14 12 -19 25 -14 36 6 17 8 16 25 -5 10 -12 18 -28 18 -36z m-742 23
c4 -19 -6 -21 -27 -8 -16 10 -5 34 12 28 7 -2 13 -11 15 -20z m1260 -4 c2 -8
-5 -13 -17 -13 -12 0 -21 6 -21 16 0 18 31 15 38 -3z m-1583 -17 c11 -3 28 -5
38 -5 19 -1 24 -17 5 -18 -7 0 -57 -15 -110 -32 -124 -40 -217 -51 -241 -27
-54 55 29 94 187 89 56 -2 110 -5 121 -7z m458 -5 c-2 -6 2 -11 7 -11 6 0 10
7 10 15 0 9 9 15 25 15 22 0 24 -3 19 -28 -3 -15 1 -54 9 -85 15 -58 15 -58
-6 -51 -31 10 -46 33 -48 74 -1 19 -1 38 0 43 0 4 -3 7 -9 7 -10 0 -5 -74 6
-91 7 -11 -7 -11 -25 0 -15 9 -27 91 -17 116 7 18 33 14 29 -4z m311 9 c33
-12 34 -30 2 -30 -25 0 -51 22 -39 33 8 9 7 9 37 -3z m366 -10 c-6 -12 -21
-20 -35 -20 -36 0 -31 18 8 29 17 5 33 10 35 10 1 1 -2 -8 -8 -19z m256 -31
c-7 -60 -33 -119 -51 -119 -10 0 -9 9 2 42 8 24 13 62 11 85 -3 39 -1 43 20
43 23 0 24 -2 18 -51z m-1076 21 c0 -4 -7 -10 -15 -13 -16 -7 -29 8 -20 23 6
10 35 2 35 -10z m97 13 c-3 -5 -2 -29 3 -55 5 -35 4 -48 -5 -48 -17 0 -34 22
-44 58 -8 25 -6 31 13 40 26 13 39 15 33 5z m460 -10 c4 -10 -37 -26 -45 -18
-3 3 1 12 8 20 14 17 31 16 37 -2z m161 5 c19 -19 14 -26 -12 -21 -16 3 -23
10 -19 19 6 17 15 18 31 2z m234 -23 c-4 -35 -25 -61 -65 -81 -24 -13 -29 -13
-43 1 -32 32 23 111 78 110 31 0 33 -2 30 -30z m174 -12 c-7 -52 -29 -93 -50
-93 -11 0 -12 6 0 38 7 20 13 52 14 70 0 26 4 32 21 32 20 0 21 -4 15 -47z
m53 28 c22 -14 -14 -101 -43 -101 -13 0 -11 20 10 98 4 14 14 15 33 3z m99 -8
c2 -8 -5 -13 -17 -13 -12 0 -21 6 -21 16 0 18 31 15 38 -3z m564 -2 c66 -33
39 -85 -42 -83 -57 1 -295 71 -283 83 22 21 284 20 325 0z m-1800 -34 c4 -23
3 -23 -23 -13 -26 9 -27 11 -12 28 19 21 29 17 35 -15z m434 8 c-25 -19 -32
-19 -40 0 -4 11 2 15 27 15 30 -1 31 -1 13 -15z m328 0 c-8 -19 -15 -19 -40 0
-18 14 -17 14 13 15 25 0 31 -4 27 -15z m429 1 c19 -15 16 -19 -25 -35 -25 -9
-26 -9 -15 20 13 33 15 34 40 15z m-1392 -29 c-1 -5 -26 -64 -37 -85 -1 -1
-13 2 -28 8 -23 8 -31 6 -52 -15 -14 -14 -33 -25 -42 -25 -30 0 -45 -17 -44
-48 0 -18 -7 -37 -18 -47 -21 -19 -19 -54 4 -70 8 -7 12 -21 9 -36 -6 -31 18
-59 50 -59 12 0 27 -8 34 -19 15 -25 49 -32 64 -14 11 12 8 13 -15 7 -19 -5
-31 -2 -37 7 -15 24 -10 29 19 18 15 -6 29 -9 32 -7 3 2 18 -21 33 -51 32 -62
26 -73 -32 -60 -81 18 -125 44 -227 135 -38 34 -84 74 -102 90 l-33 29 42 32
c23 18 60 49 83 70 97 90 157 126 241 143 44 9 57 8 56 -3z m1179 -14 c-24
-83 -50 -111 -50 -56 0 21 42 83 56 83 2 0 -1 -12 -6 -27z m-1060 -8 c0 -10
-6 -12 -17 -8 -15 6 -16 4 -6 -8 6 -8 8 -20 4 -27 -6 -10 -10 -10 -20 2 -10
12 -9 20 4 40 17 26 35 26 35 1z m65 13 l26 -12 -28 -11 c-29 -12 -43 -5 -43
23 0 15 12 15 45 0z m1230 -21 c-7 -25 -8 -26 -32 -10 l-25 16 29 12 c34 15
36 14 28 -18z m320 -28 c30 -19 80 -59 112 -90 32 -30 75 -68 96 -84 l39 -29
-27 -20 c-15 -11 -66 -53 -114 -94 -88 -75 -152 -115 -206 -126 -54 -10 -85
-15 -85 -11 0 2 11 26 24 54 19 42 25 49 35 37 16 -19 51 -12 73 14 9 11 25
20 36 20 27 0 45 25 40 54 -3 15 1 27 14 35 21 13 24 54 4 73 -7 8 -13 26 -13
41 0 35 -19 57 -49 57 -13 0 -28 9 -35 21 -9 18 -18 20 -48 16 -36 -4 -38 -3
-57 39 -13 28 -17 45 -10 47 24 8 120 -22 171 -54z m-271 42 c7 -10 -18 -34
-27 -25 -7 8 3 34 13 34 5 0 11 -4 14 -9z m-660 -47 c5 -17 2 -22 -18 -26 -30
-6 -42 24 -19 48 17 17 27 11 37 -22z m-539 16 c3 -5 0 -10 -7 -10 -8 0 -29
-11 -48 -25 -36 -26 -50 -25 -50 6 0 30 89 55 105 29z m1115 -8 c17 -13 21
-24 16 -40 -7 -22 -8 -21 -47 10 -21 17 -39 35 -39 40 0 15 47 8 70 -10z m118
-21 c19 -35 19 -40 5 -45 -22 -9 -35 14 -20 33 10 12 9 14 -5 9 -20 -8 -31 15
-15 31 15 15 12 16 35 -28z m-1030 -12 c2 -32 1 -33 -13 -15 -18 24 -20 59 -2
54 6 -3 13 -20 15 -39z m642 -9 c-13 -25 -15 -24 -24 12 -5 20 -2 27 11 30 22
4 28 -14 13 -42z m-787 30 c7 0 -8 -12 -33 -26 -25 -14 -54 -34 -66 -45 -19
-18 -22 -18 -34 -4 -11 13 -9 19 11 36 31 28 80 50 97 44 8 -3 19 -5 25 -5z
m985 -4 c42 -22 73 -59 62 -75 -6 -11 -18 -5 -56 27 -26 23 -51 42 -56 42 -5
0 -6 5 -3 10 8 14 21 13 53 -4z m-1224 -31 c-7 -17 -13 -18 -32 -7 -7 5 -10
16 -6 25 5 13 10 14 25 7 10 -6 16 -17 13 -25z m428 14 c-11 -28 -26 -29 -30
-1 -3 17 2 22 17 22 16 0 19 -4 13 -21z m559 14 c0 -5 2 -16 4 -25 2 -10 0
-18 -3 -18 -11 0 -32 37 -25 44 9 8 23 8 24 -1z m-707 -30 c-10 -7 -23 -13
-29 -13 -7 0 -30 -19 -53 -42 -35 -35 -43 -39 -57 -28 -14 12 -13 15 6 36 30
32 117 74 136 67 14 -5 13 -8 -3 -20z m894 13 c15 -8 42 -30 60 -48 31 -33 32
-35 14 -51 -17 -15 -20 -14 -55 22 -21 21 -51 44 -67 51 -34 14 -38 26 -12 33
29 8 32 7 60 -7z m-1315 -8 c-2 -5 -6 -9 -10 -9 -5 -1 -18 -5 -30 -10 -25 -9
-30 0 -11 19 13 13 55 13 51 0z m722 -4 c15 -15 15 -18 -1 -35 -17 -19 -17
-19 -31 1 -15 21 -11 50 6 50 5 0 17 -7 26 -16z m270 6 c9 -15 -4 -50 -19 -50
-8 0 -20 7 -27 16 -11 14 -10 18 6 30 22 17 32 17 40 4z m736 -21 c10 -19 9
-20 -13 -13 -12 4 -29 7 -35 7 -14 0 -17 10 -6 20 13 14 43 6 54 -14z m-468
-11 c42 -22 42 -23 14 -26 -29 -4 -77 20 -77 38 0 15 17 12 63 -12z m-1146 4
c20 -13 5 -51 -18 -45 -13 4 -18 11 -15 20 3 8 6 19 6 24 0 11 11 11 27 1z
m160 -105 c20 -17 20 -18 -13 -53 -18 -20 -38 -49 -44 -65 -17 -39 -24 -37
-40 12 -18 55 -16 134 4 184 l17 39 28 -49 c16 -28 38 -58 48 -68z m227 82
c-17 -18 -44 -26 -44 -12 0 15 33 41 46 36 13 -5 12 -8 -2 -24z m-593 3 c-5
-10 -17 -24 -25 -32 -14 -11 -16 -9 -16 13 0 24 11 35 38 36 9 1 10 -4 3 -17z
m1293 -1 c14 -15 15 -19 3 -24 -8 -3 -24 5 -36 19 -19 22 -20 24 -2 24 10 0
26 -8 35 -19z m296 -42 c14 -55 9 -129 -11 -172 -16 -35 -22 -34 -37 6 -6 17
-25 47 -42 66 l-31 34 29 31 c16 17 37 46 46 64 9 18 21 30 25 27 5 -3 15 -28
21 -56z m96 11 c11 -50 5 -63 -23 -53 -19 7 -16 30 5 42 15 9 15 10 -5 11 -25
0 -30 19 -11 38 19 19 23 15 34 -38z m-1053 20 c-6 -24 -19 -34 -34 -25 -7 5
-4 14 7 26 22 25 33 24 27 -1z m631 -16 c3 -7 -1 -15 -9 -18 -8 -3 -17 6 -24
24 -9 27 -8 29 9 17 11 -6 22 -17 24 -23z m624 24 c12 -12 17 -48 6 -48 -8 0
-43 43 -44 53 0 11 25 8 38 -5z m-1305 -41 c46 -20 49 -29 5 -16 -55 15 -91
10 -123 -18 l-29 -26 33 -29 c29 -26 40 -30 75 -25 23 3 50 8 61 11 11 4 3 -2
-17 -14 -21 -11 -57 -23 -81 -26 -38 -5 -47 -3 -66 17 -14 15 -21 36 -21 60 0
53 9 69 43 84 32 13 53 10 120 -18z m830 5 c24 -26 32 -77 17 -112 -20 -48
-79 -56 -148 -21 -35 18 -40 25 -38 51 3 38 12 46 61 54 33 5 45 3 67 -17 l28
-24 -25 -23 c-21 -20 -31 -22 -77 -17 -35 4 -46 3 -33 -3 11 -5 38 -9 61 -9
32 -1 46 5 67 27 l26 27 -35 29 c-36 29 -66 31 -129 12 -11 -4 3 5 30 19 59
29 106 32 128 7z m-1323 -62 c0 -38 -4 -70 -9 -70 -24 0 -54 39 -54 70 0 31
30 70 54 70 5 0 9 -31 9 -70z m112 64 c7 -7 -2 -44 -11 -44 -17 1 -33 20 -28
34 6 16 28 22 39 10z m778 -14 c11 -11 21 -24 21 -30 1 -5 2 -16 3 -22 1 -7
-4 -25 -13 -40 -41 -74 -160 -20 -130 59 5 16 17 34 26 41 25 18 70 15 93 -8z
m828 -10 c12 -12 22 -33 22 -49 0 -29 -35 -74 -52 -69 -8 3 -14 91 -9 133 2
11 18 4 39 -15z m-1848 -36 c0 -24 -4 -34 -12 -32 -18 6 -22 36 -8 53 18 21
20 19 20 -21z m630 23 c51 -26 33 -58 -41 -72 -30 -5 -41 -2 -65 18 l-29 25
25 21 c28 23 73 27 110 8z m1340 -43 c0 -6 -7 -17 -15 -24 -12 -10 -15 -9 -16
4 -2 22 -1 55 0 64 2 11 31 -30 31 -44z m-1740 26 c11 -7 12 -12 3 -21 -13
-13 -33 -4 -33 17 0 16 9 18 30 4z m578 -12 c-3 -25 -25 -33 -47 -19 -21 14
-5 41 24 41 22 0 26 -4 23 -22z m377 -2 c0 -14 -8 -20 -27 -23 -24 -3 -28 0
-28 22 0 23 4 26 28 23 19 -2 27 -9 27 -22z m550 -6 c0 -7 -4 -15 -10 -17 -15
-4 -38 14 -31 25 9 14 41 8 41 -8z m-1489 -31 c7 -12 -12 -29 -33 -29 -7 0
-13 9 -13 20 0 22 34 28 46 9z m1494 -6 c-1 -19 -19 -35 -34 -30 -26 10 -19
37 9 37 14 0 25 -3 25 -7z m-1697 -53 c4 0 5 -4 2 -10 -16 -26 -56 9 -48 41 6
21 6 21 22 -5 8 -14 19 -26 24 -26z m491 -39 l39 -20 -27 -11 c-38 -14 -39
-14 -88 26 -56 47 -64 62 -43 78 15 11 22 8 49 -20 17 -18 49 -42 70 -53z
m139 26 c-3 -5 -15 1 -27 12 -18 19 -19 23 -6 31 11 7 18 3 27 -13 6 -12 9
-26 6 -30z m845 41 c19 -19 15 -25 -30 -55 -58 -39 -92 -53 -107 -43 -9 5 1
15 31 32 23 13 42 30 40 37 -1 7 2 10 7 6 6 -3 16 3 23 15 15 23 20 24 36 8z
m-214 -7 c6 -9 -31 -48 -38 -40 -2 2 0 14 5 27 9 23 24 29 33 13z m634 -12
c-3 -23 -33 -48 -44 -37 -7 7 27 57 39 58 5 0 7 -10 5 -21z m-1685 -3 c5 -13
-10 -36 -24 -36 -10 0 -20 30 -13 41 8 14 31 11 37 -5z m366 -43 c-28 -12 -36
-11 -76 9 -24 12 -46 25 -48 28 -8 12 75 -3 86 -16 6 -8 19 -14 27 -14 12 0
10 4 -7 16 -18 13 -20 18 -10 25 9 5 22 0 36 -13 l23 -22 -31 -13z m1101 23
c0 -18 -10 -25 -26 -19 -8 3 -14 16 -14 29 0 22 3 23 20 14 11 -6 20 -17 20
-24z m-375 15 c5 -9 -31 -41 -47 -41 -12 0 -9 19 5 35 14 16 33 19 42 6z
m-938 -14 c4 -7 25 -26 45 -43 41 -32 47 -44 21 -44 -37 0 -111 69 -98 90 9
14 23 12 32 -3z m451 -5 c17 -17 17 -19 -2 -34 -24 -17 -46 -13 -46 8 0 12 19
42 28 44 1 0 10 -8 20 -18z m258 4 c31 -32 5 -67 -28 -38 -13 11 -15 19 -7 33
12 23 16 23 35 5z m324 7 c0 -9 -98 -49 -109 -45 -24 8 39 49 76 48 18 -1 33
-2 33 -3z m101 -47 c-28 -29 -86 -50 -107 -38 -15 8 -12 12 17 26 19 9 48 27
64 40 25 21 31 22 38 9 6 -10 2 -22 -12 -37z m-1271 5 c0 -10 -6 -21 -14 -24
-18 -7 -31 24 -14 35 20 12 28 9 28 -11z m434 -33 c-3 -5 -12 -8 -20 -8 -14 0
-20 41 -7 54 8 8 33 -35 27 -46z m1151 22 c-14 -15 -22 -17 -37 -9 -10 5 -16
14 -13 20 4 5 9 8 13 5 4 -2 16 0 27 4 28 10 31 4 10 -20z m-1416 -52 c2 -13
-39 -9 -70 7 -16 9 -28 19 -26 23 2 4 7 15 11 26 6 16 10 15 45 -15 22 -19 40
-37 40 -41z m219 43 c0 -18 -5 -32 -15 -35 -21 -8 -22 -7 -11 32 11 40 25 42
26 3z m608 13 c-3 -9 -6 -20 -6 -25 0 -5 -7 -9 -15 -9 -18 0 -18 5 -5 31 13
23 35 26 26 3z m431 8 c10 -7 10 -12 0 -26 -12 -16 -14 -16 -26 -2 -20 24 -1
45 26 28z m-394 -37 c3 -20 1 -25 -12 -23 -9 2 -16 12 -17 23 -1 43 20 43 29
0z m277 26 c0 -5 3 -16 6 -24 6 -17 -59 -47 -88 -39 -20 5 -25 22 -5 22 6 0
26 11 42 25 32 26 45 31 45 16z m-967 -33 c-6 -32 -53 -89 -53 -65 1 22 39 97
49 97 6 0 8 -13 4 -32z m381 10 c-3 -35 -4 -38 -23 -38 -21 0 -33 22 -24 46 8
21 48 14 47 -8z m343 10 c6 -7 13 -25 17 -40 3 -14 9 -34 12 -45 5 -13 0 -12
-19 8 -13 14 -28 40 -32 57 -7 33 4 42 22 20z m-773 -35 c-10 -22 -14 -57 -12
-90 3 -49 1 -53 -19 -53 -31 0 -32 7 -17 80 9 43 21 71 35 83 29 24 30 22 13
-20z m-274 13 c0 -19 -27 -28 -33 -11 -7 15 1 25 20 25 7 0 13 -6 13 -14z
m1111 -5 c18 -14 23 -31 27 -81 5 -66 -4 -82 -38 -73 -14 4 -17 10 -11 26 7
19 -1 84 -15 130 -7 22 8 22 37 -2z m272 -18 c-5 -13 -7 -13 -21 0 -8 8 -11
20 -7 27 10 16 35 -7 28 -27z m-953 22 c0 -2 -13 -11 -30 -20 -48 -25 -70 -55
-70 -97 0 -37 1 -38 38 -38 40 0 75 27 102 78 24 49 20 12 -5 -42 -28 -60 -70
-92 -105 -81 -26 8 -80 72 -80 95 0 37 61 82 148 109 1 1 2 -1 2 -4z m-203
-19 c-3 -8 -11 -41 -17 -74 -11 -52 -15 -59 -32 -54 -11 3 -17 10 -14 18 3 8
1 14 -3 14 -5 0 -11 -5 -13 -11 -3 -9 -9 -9 -25 -1 -26 14 -21 40 14 78 30 33
37 27 25 -20 -6 -20 -7 -36 -2 -36 4 0 11 16 14 35 7 35 29 65 48 65 5 0 8 -6
5 -14z m767 -7 c54 -25 80 -61 71 -96 -9 -35 -62 -83 -92 -83 -33 0 -80 51
-94 102 -9 36 -8 43 12 64 20 22 23 22 51 8 45 -24 68 -51 68 -84 0 -26 -4
-30 -26 -30 -38 0 -62 16 -83 58 -11 20 -20 31 -21 23 0 -24 41 -81 63 -86 12
-2 35 -6 52 -7 28 -3 30 -1 27 32 -5 58 -11 68 -55 95 -51 30 -34 33 27 4z
m-974 -3 c0 -16 -18 -31 -27 -22 -8 8 5 36 17 36 5 0 10 -6 10 -14z m63 1 c16
-11 15 -13 -13 -24 -26 -10 -30 -9 -30 6 0 32 16 38 43 18z m376 -1 c25 -30
-42 -116 -89 -116 -26 0 -30 3 -28 28 2 36 21 63 61 84 40 21 42 21 56 4z
m710 0 c19 -23 26 -107 10 -117 -25 -15 -29 -10 -28 39 1 27 -2 58 -5 70 -8
25 6 29 23 8z m141 -17 c0 -22 0 -22 -37 -8 l-28 11 25 13 c29 16 40 11 40
-16z m49 7 c8 -10 9 -16 1 -21 -13 -8 -30 3 -30 21 0 18 14 18 29 0z m-1675
-39 c60 -19 105 -37 100 -40 -14 -8 -133 -19 -214 -19 -95 0 -150 20 -150 56
0 14 8 30 18 36 28 17 128 4 246 -33z m1540 24 c26 -29 26 -71 -1 -82 -21 -8
-23 -6 -24 29 0 20 -2 45 -4 55 -4 22 8 22 29 -2z m-1119 -21 c-17 -34 -27
-37 -45 -15 -10 12 -6 17 22 29 18 8 34 15 36 15 1 1 -4 -12 -13 -29z m1815
10 c23 -23 18 -42 -17 -61 -30 -16 -267 -20 -318 -6 -29 8 -26 10 45 33 169
56 258 66 290 34z m-630 -10 c13 -9 12 -12 -5 -25 -18 -14 -20 -14 -27 2 -13
35 0 44 32 23z m-754 -15 c18 -14 17 -14 -13 -15 -23 0 -33 5 -33 15 0 19 21
19 46 0z m324 0 c0 -10 -10 -15 -32 -15 -30 0 -31 1 -12 15 25 19 44 19 44 0z
m-806 -24 c3 -5 -1 -12 -10 -15 -22 -9 -24 -8 -24 9 0 16 25 21 34 6z m553 1
c8 -5 9 -13 3 -22 -8 -13 -13 -11 -32 8 -21 21 -22 22 -3 22 11 0 25 -4 32 -8z
m183 5 c0 -2 -9 -14 -19 -26 -19 -22 -20 -22 -30 -2 -11 20 -11 20 42 30 4 0
7 -1 7 -2z m533 -40 c-5 -34 -20 -47 -36 -31 -9 9 4 35 14 28 5 -3 9 0 9 5 0
6 -6 11 -12 11 -8 0 -5 7 6 15 25 19 27 17 19 -28z m-786 19 c-3 -9 -67 -29
-67 -21 0 2 3 10 6 18 6 18 67 20 61 3z m91 -34 c-12 -49 -6 -77 25 -115 l24
-28 27 36 c29 38 32 51 22 105 l-7 35 20 -35 c11 -19 20 -54 21 -78 0 -37 -4
-45 -32 -61 -35 -22 -77 -21 -114 4 -31 20 -32 68 -3 136 26 59 32 59 17 1z
m78 13 c20 -49 18 -78 -10 -109 l-23 -28 -22 35 c-28 45 -18 121 17 130 9 3
18 5 20 6 2 0 10 -15 18 -34z m168 18 c8 -21 6 -22 -26 -16 -38 7 -44 30 -8
31 17 0 31 -6 34 -15z m-1006 -27 c-41 -36 -329 -184 -368 -190 -84 -11 -96
65 -16 106 74 38 328 118 376 117 l45 0 -37 -33z m721 -23 c-10 -11 -14 -10
-25 4 -7 10 -14 27 -14 37 0 18 2 18 25 -4 19 -18 22 -26 14 -37z m204 17
c-16 -28 -33 -31 -33 -8 0 15 33 47 43 41 4 -2 0 -17 -10 -33z m912 -25 c77
-26 152 -54 167 -61 89 -46 53 -131 -42 -99 -96 33 -334 161 -366 196 l-19 22
60 -6 c33 -3 123 -26 200 -52z m-1635 30 c0 -8 -9 -15 -19 -15 -10 0 -21 7
-25 15 -4 11 1 15 19 15 16 0 25 -6 25 -15z m178 -29 l44 -2 3 -51 c2 -28 8
-60 14 -71 18 -34 14 -43 -15 -32 -68 26 -136 97 -154 161 l-8 27 36 -15 c19
-8 55 -16 80 -17z m272 24 c0 -11 -31 -29 -71 -40 -34 -10 -37 -1 -10 22 28
24 81 36 81 18z m398 -28 l27 -25 -30 7 c-70 17 -115 57 -54 48 17 -2 43 -16
57 -30z m-338 -59 l0 -38 -20 31 c-11 17 -23 46 -26 65 l-6 34 26 -27 c19 -20
26 -38 26 -65z m220 18 c-11 -23 -22 -41 -25 -41 -12 0 4 72 21 91 28 31 31 1
4 -50z m414 47 c-9 -31 -47 -89 -70 -110 -26 -22 -104 -62 -110 -55 -3 2 2 28
12 56 9 28 14 62 12 76 -5 23 -2 25 36 26 22 0 57 6 76 13 49 19 52 19 44 -6z
m-1243 -42 l16 -43 -30 -13 c-25 -11 -28 -17 -25 -46 2 -20 -1 -35 -8 -38 -28
-11 -17 -86 13 -86 6 0 8 -11 6 -23 -6 -29 20 -57 50 -57 12 0 28 -9 35 -20
15 -24 70 -28 78 -5 4 10 15 12 35 8 33 -6 59 10 59 37 0 17 3 17 50 2 28 -9
50 -19 50 -23 0 -16 -87 -67 -140 -83 -30 -9 -95 -18 -145 -21 -49 -3 -113 -8
-142 -11 -50 -5 -52 -4 -48 18 3 13 7 57 10 98 11 151 16 189 27 222 15 44 77
142 86 134 3 -4 14 -26 23 -50z m109 23 c0 -14 -5 -19 -17 -17 -26 5 -29 38
-4 38 15 0 21 -6 21 -21z m1364 -28 c37 -59 55 -123 61 -218 3 -49 7 -117 11
-152 l6 -64 -43 7 c-23 4 -81 9 -128 12 -142 8 -216 30 -285 87 l-30 24 49 16
c56 19 69 21 60 7 -3 -5 3 -18 14 -29 17 -17 26 -19 46 -11 20 8 27 6 35 -10
14 -26 45 -25 70 0 11 11 30 20 43 20 30 0 47 18 47 50 0 14 8 30 20 38 23 14
27 55 7 73 -7 7 -11 27 -9 46 4 30 1 35 -26 45 -28 11 -29 13 -17 42 7 17 15
39 18 49 9 23 22 15 51 -32z m-856 -78 c13 -13 28 -23 35 -23 6 0 2 -10 -10
-22 l-22 -22 -23 29 c-31 39 -49 73 -58 110 -7 27 -9 28 -15 9 -8 -26 -47 -40
-110 -40 -46 1 -50 3 -53 26 -3 24 -1 25 66 26 37 0 77 6 88 12 16 9 23 4 49
-36 16 -26 40 -57 53 -69z m722 110 c0 -5 -4 -14 -8 -21 -11 -17 -42 -4 -35
14 5 14 43 20 43 7z m-1512 -79 c-71 -153 -144 -243 -187 -229 -40 12 -31 59
26 133 25 33 184 174 190 168 2 -2 -11 -34 -29 -72z m1106 61 c36 -11 52 -12
57 -4 4 7 9 8 13 1 3 -6 15 -8 26 -5 16 4 20 0 20 -22 0 -26 -2 -27 -37 -20
-72 12 -114 29 -124 47 -5 10 -8 18 -7 18 2 0 25 -7 52 -15z m-59 -25 c5 -21
1 -37 -13 -57 -34 -48 -68 -74 -85 -67 -24 9 -21 29 6 47 13 8 34 36 48 61 13
25 27 46 31 46 3 0 9 -13 13 -30z m821 -95 c93 -91 117 -132 97 -164 -6 -9
-18 -18 -28 -19 -30 -6 -106 86 -166 200 -56 107 -56 107 -26 90 17 -9 72 -57
123 -107z m-1558 88 c6 -19 -28 -29 -39 -12 -5 8 -9 18 -9 22 0 13 43 3 48
-10z m1170 9 c12 -8 7 -42 -7 -42 -17 1 -31 18 -25 33 7 19 13 20 32 9z m-318
-35 c37 -8 55 -17 55 -27 0 -11 -11 -14 -40 -13 -54 4 -92 21 -98 45 -4 15 -2
18 11 13 9 -4 42 -12 72 -18z m-422 -52 c40 -59 44 -75 18 -75 -21 0 -66 76
-66 111 0 38 -3 40 48 -36z m-405 41 c5 -13 -10 -36 -24 -36 -14 0 -19 34 -7
42 18 11 25 10 31 -6z m328 -6 c-22 -19 -40 -24 -68 -21 -7 1 -13 -3 -13 -9 0
-7 12 -9 35 -4 20 3 35 2 35 -3 0 -15 -32 -41 -61 -48 -21 -5 -27 -2 -37 19
-10 22 -9 26 6 27 14 0 14 2 2 6 -15 6 -30 23 -30 35 0 4 28 9 63 11 34 2 69
4 77 5 10 1 7 -6 -9 -18z m-489 -29 c-18 -31 -32 -32 -32 -1 0 19 28 42 42 34
4 -2 -1 -17 -10 -33z m898 16 c0 -34 -60 -100 -82 -92 -15 6 -10 15 30 61 26
29 48 54 50 54 1 0 2 -11 2 -23z m385 13 c4 -6 1 -18 -6 -26 -11 -13 -14 -13
-27 0 -8 8 -11 19 -8 25 9 14 33 14 41 1z m155 -40 c0 -10 -4 -22 -10 -25 -5
-3 -10 0 -10 8 0 8 -7 20 -15 27 -20 17 -8 32 16 20 10 -6 19 -19 19 -30z
m-1246 11 c8 -12 -21 -34 -34 -26 -8 5 -8 11 1 21 13 16 25 18 33 5z m356 -66
c17 -11 11 -32 -11 -38 -27 -7 -55 48 -44 89 l7 29 19 -37 c10 -20 23 -40 29
-43z m443 59 c37 -6 44 -17 28 -42 -7 -11 -14 -11 -44 1 -39 17 -75 64 -40 53
10 -2 35 -8 56 -12z m256 -18 c0 -6 -13 -21 -30 -34 -25 -20 -30 -21 -35 -8
-9 25 4 52 18 38 7 -7 17 -12 22 -12 6 0 5 5 -1 11 -17 17 -5 43 13 28 8 -6
14 -17 13 -23z m-326 1 c2 -7 -2 -29 -10 -50 -13 -31 -19 -37 -37 -31 -32 10
-32 12 -3 42 15 16 27 33 27 40 0 16 17 15 23 -1z m-776 -109 c-52 -33 -121
29 -96 85 11 23 11 23 59 -27 33 -34 45 -53 37 -58z m100 87 c18 -11 33 -28
33 -37 0 -21 -4 -22 -30 -8 -13 7 -17 16 -13 28 5 13 3 15 -7 5 -20 -18 -56 3
-39 23 7 8 15 13 18 12 3 -2 21 -12 38 -23z m557 -56 l39 -17 -34 -18 c-46
-24 -151 -24 -203 -1 l-39 17 52 26 c28 14 59 36 69 49 l17 22 30 -30 c16 -17
47 -38 69 -48z m554 -2 c-12 -32 -48 -50 -84 -41 -13 3 -24 8 -24 11 0 2 21
26 48 53 45 46 47 48 58 27 8 -14 9 -29 2 -50z m-1375 -16 c-8 -12 -33 12 -33
33 0 37 24 38 30 2 3 -17 5 -33 3 -35z m473 57 c-15 -49 -16 -50 -31 -38 -8 7
-15 16 -15 20 0 5 30 24 47 29 1 1 1 -5 -1 -11z m540 -10 c4 -6 -1 -17 -9 -26
-15 -14 -17 -13 -27 12 -5 15 -10 29 -10 31 0 7 41 -8 46 -17z m171 -20 c-21
-13 -37 -9 -37 11 0 25 22 33 37 13 10 -13 10 -17 0 -24z m-667 -15 c0 -7 -11
-13 -24 -13 -24 0 -24 2 -14 32 10 29 12 30 25 13 7 -11 13 -25 13 -32z m438
-11 c-27 -5 -30 0 -15 31 l12 27 12 -27 c10 -25 9 -28 -9 -31z m517 37 c5 -14
1 -27 -9 -37 -20 -21 -25 -14 -19 26 6 37 19 42 28 11z m-1137 -2 c13 -15 -1
-42 -17 -33 -13 8 -15 46 -2 46 5 0 13 -6 19 -13z m802 -17 c0 -13 -7 -20 -20
-20 -19 0 -27 20 -13 33 13 14 33 6 33 -13z m-752 -8 c2 -7 -4 -15 -13 -18
-20 -8 -27 -1 -19 20 7 18 25 17 32 -2z m693 -25 c-7 -7 -12 -5 -17 7 -4 11
-1 21 7 27 17 11 26 -18 10 -34z m-31 13 c0 -11 -7 -20 -15 -20 -27 0 -18 30
13 39 1 1 2 -8 2 -19z m-990 -76 c0 -2 -9 -4 -20 -4 -20 0 -43 36 -33 53 4 7
53 -37 53 -49z m448 37 c-9 -15 -15 -17 -26 -9 -10 9 -11 13 0 19 7 5 19 9 26
9 10 0 10 -4 0 -19z m462 9 c8 -5 11 -12 8 -16 -10 -9 -38 3 -38 16 0 12 10
13 30 0z m460 -45 c-13 -15 -40 -21 -40 -8 0 4 10 18 23 31 18 20 23 21 25 7
2 -9 -2 -22 -8 -30z m-884 24 c10 -17 -13 -36 -27 -22 -12 12 -4 33 11 33 5 0
12 -5 16 -11z m390 0 c3 -6 1 -16 -5 -22 -9 -9 -14 -8 -21 3 -5 8 -10 18 -10
23 0 11 28 8 36 -4z m-696 -13 c0 -21 -28 -39 -47 -31 -16 6 -15 8 7 25 30 23
40 25 40 6z m1020 -29 c0 -5 -10 -7 -22 -5 -15 2 -24 11 -26 27 -4 23 -4 23
22 5 14 -11 26 -23 26 -27z m-666 24 c9 -15 -23 -36 -36 -23 -5 5 -7 15 -4 21
9 13 33 14 40 2z m302 -2 c12 -19 -13 -34 -32 -18 -16 12 -17 12 -11 -3 8 -22
-31 -37 -44 -17 -14 22 -11 29 14 29 12 0 29 5 37 10 20 13 27 12 36 -1z
m-747 -25 c8 -7 -12 -24 -28 -24 -18 0 -41 18 -41 33 0 7 59 0 69 -9z m501 2
c0 -20 -16 -29 -41 -21 -16 5 -18 10 -8 21 15 18 49 18 49 0z m50 -16 c0 -14
-7 -20 -24 -20 -19 0 -23 4 -19 20 3 11 14 20 24 20 12 0 19 -7 19 -20z m38
-2 c-2 -13 -7 -23 -13 -23 -5 0 -11 10 -13 23 -2 15 2 22 13 22 11 0 15 -7 13
-22z m52 18 c0 -2 3 -11 6 -20 5 -12 0 -16 -20 -16 -19 0 -26 5 -26 20 0 13 7
20 20 20 11 0 20 -2 20 -4z m570 -5 c0 -11 -22 -29 -35 -29 -12 0 -35 18 -35
27 0 3 16 7 35 8 19 2 35 -1 35 -6z m-976 -179 c-44 -155 -92 -284 -116 -309
-51 -55 -102 -10 -78 69 18 64 157 329 188 361 l27 29 3 -27 c2 -14 -9 -70
-24 -123z m139 117 c43 -21 44 -23 33 -51 -10 -27 -8 -32 13 -50 14 -11 26
-29 28 -40 5 -33 24 -49 52 -46 15 2 34 -5 44 -14 9 -10 24 -18 32 -18 8 0 23
8 33 18 9 9 27 16 40 14 32 -5 63 25 58 54 -4 18 0 24 14 24 24 0 38 45 22 70
-9 14 -3 20 34 38 25 12 47 22 50 22 12 0 -5 -91 -26 -136 -18 -41 -63 -105
-103 -146 -7 -7 -38 -43 -70 -81 -31 -37 -57 -64 -57 -59 0 7 -36 51 -137 165
-29 32 -63 82 -77 110 -23 50 -45 147 -32 147 3 0 25 -10 49 -21z m634 -140
c109 -218 127 -274 97 -303 -23 -24 -49 -19 -76 12 -35 42 -125 318 -133 409
l-4 48 37 -41 c20 -23 56 -79 79 -125z m-563 42 c-6 -6 -34 20 -34 33 0 7 6
18 12 24 10 10 14 6 20 -20 3 -18 5 -35 2 -37z m291 20 c-3 -11 -13 -21 -22
-21 -10 0 -13 6 -9 16 3 9 6 25 6 37 0 20 1 20 16 5 10 -10 14 -23 9 -37z
m-97 15 c-7 -48 -95 -59 -118 -16 -16 31 -7 37 60 36 55 0 61 -2 58 -20z
m-519 -53 c-61 -79 -153 -163 -193 -176 -22 -7 -32 -6 -47 9 -25 26 -9 57 56
106 54 41 202 125 223 127 7 0 -10 -29 -39 -66z m1088 -63 c26 -19 55 -49 66
-67 l18 -32 -25 -16 c-23 -15 -27 -15 -60 0 -50 24 -180 160 -217 227 -12 22
152 -62 218 -112z m-922 40 c2 -8 13 -41 24 -74 19 -52 27 -94 36 -175 8 -70
-51 -97 -82 -38 -13 25 -17 57 -17 142 -1 61 3 133 8 160 8 46 9 48 18 25 5
-14 11 -32 13 -40z m619 -89 c9 -162 -19 -253 -72 -237 -28 9 -34 48 -21 121
12 71 9 58 44 170 33 107 41 99 49 -54z m-395 54 c-14 -14 -43 8 -47 35 l-4
23 30 -24 c19 -15 26 -28 21 -34z m172 11 c-12 -11 -26 -16 -36 -12 -14 5 -12
10 12 30 33 28 54 13 24 -18z m-76 -18 c3 -3 -1 -11 -9 -17 -16 -13 -56 1 -56
19 0 9 55 8 65 -2z"/>
<path d="M1390 1985 c13 -14 26 -23 28 -20 7 7 -29 45 -41 45 -6 0 0 -11 13
-25z"/>
<path d="M1413 1453 c-19 -7 -16 -41 5 -52 22 -12 42 3 42 30 0 13 -23 33 -33
28 -1 0 -8 -3 -14 -6z"/>
</g>
</svg>
